<?xml version="1.0" encoding="utf-8"?>
<!-- Generator: Adobe Illustrator 22.0.0, SVG Export Plug-In . SVG Version: 6.00 Build 0)  -->
<svg version="1.1" id="Layer_1" xmlns="http://www.w3.org/2000/svg" xmlns:xlink="http://www.w3.org/1999/xlink" x="0px" y="0px"
	 viewBox="0 0 115.8 145.7" style="enable-background:new 0 0 115.8 145.7;" xml:space="preserve">
<style type="text/css">
	.st0{fill:#33BECA;}
	.st1{fill:#FFFFFF;}
</style>
<g>
	<g>
		<g>
			<path class="st0" d="M115.8,57.5c0-35.6-32.2-63.7-69-56.8C23.6,5.1,5.1,24,1.1,47.2c-2.6,14.6,0.4,28.2,7.1,39.5l0.1,0.2
				c2.2,3.7,5,6.4,7.8,10.3l33.6,44.5c4.2,5.5,12.5,5.5,16.7,0l33-43.7c0,0,6.2-7.3,8.4-11.1l0.1-0.2
				C112.8,78.1,115.8,68.2,115.8,57.5z"/>
		</g>
	</g>
	<g>
		<g>
			<g>
				<path class="st1" d="M62.2,88.4l14.7-9.9l-16.1-4c-1-0.2-2,0-2.9,0.6l-13.4,9.8l17.4,3.6C62,88.4,62.1,88.4,62.2,88.4z"/>
				<path class="st1" d="M72.7,105.5l9.1-5.9c0.4-0.3,0.6-0.8,0.5-1.2l-3.4-17.6c-0.1-0.4-0.5-0.6-0.8-0.4L66.9,88l-4.3,2.9
					l-1.4-0.3l0,0l-16.9-3.5c-0.4-0.1-0.7,0.3-0.7,0.6l3.5,18c0,0.2,0.2,0.4,0.4,0.4l8.6,1.6l8,1.5c1.3,0.2,2.6,0,3.7-0.7l0,0l0,0
					L72.7,105.5L72.7,105.5L72.7,105.5z"/>
			</g>
		</g>
		<g>
			<path class="st1" d="M43,89.4c-9.7-4.9-19.7-16.5-22.1-19.5c-0.1-0.1-0.2-0.3-0.1-0.5c3-4.1,7.3-6.5,11.8-6.5
				c7.4,0,11.9,4.3,14.3,6.2c1.2,3.4,2.6,6.9,4.3,9.9l0.6-0.4c-1.7-2.9-3.1-6.2-4.2-9.5c2-4,6.7-7.8,12.8-9.7
				c6.5-2,12.9-1.4,16.8,1.2c-0.4,5-1.7,10.6-4.4,16.3l0.6,0.2c2.8-6.1,4.1-11.9,4.4-17.2c1.2-3.6,3.9-7.4,7.8-10.5
				c2.5-2,5.2-3.3,7.8-4.2c0.1,0,0.2,0.1,0.2,0.3c0.5,4.4,1.7,23-13.1,38.3l0.1,0.7C97.7,67,93.8,44.9,93.8,44.9
				C87.9,34.1,72.4,18.6,47.1,25c-22.6,5.8-30.9,29.3-27.5,42.6c0.2,0.8,0.5,1.6,0.8,2.4c0,0,11.7,14.7,22.9,20.3L43,89.4z"/>
		</g>
	</g>
</g>
</svg>
