<?xml version="1.0" encoding="utf-8"?>
<!-- Generator: Adobe Illustrator 22.0.0, SVG Export Plug-In . SVG Version: 6.00 Build 0)  -->
<svg version="1.1" id="Layer_1" xmlns="http://www.w3.org/2000/svg" xmlns:xlink="http://www.w3.org/1999/xlink" x="0px" y="0px"
	 viewBox="0 0 136.8 167.3" style="enable-background:new 0 0 136.8 167.3;" xml:space="preserve">
<style type="text/css">
	.st0{fill:#33BECA;}
	.st1{fill:#FFFFFF;}
</style>
<g>
	<g>
		<g>
			<path class="st0" d="M125.7,65.7c0-35.6-32.2-63.7-69-56.8C33.5,13.3,15,32.2,11,55.4C8.4,70,11.4,83.6,18.1,94.9l0.1,0.2
				c2.2,3.7,5,6.4,7.8,10.3l33.6,44.5c4.2,5.5,12.5,5.5,16.7,0l33-43.7c0,0,6.2-7.3,8.4-11.1l0.1-0.2
				C122.7,86.3,125.7,76.4,125.7,65.7z"/>
		</g>
	</g>
	<g>
		<g>
			<g>
				<path class="st1" d="M72.1,96.6l14.7-9.9l-16.1-4c-1-0.2-2,0-2.9,0.6l-13.4,9.8l17.4,3.6C71.9,96.6,72,96.6,72.1,96.6z"/>
				<path class="st1" d="M82.6,113.7l9.1-5.9c0.4-0.3,0.6-0.8,0.5-1.2L88.8,89c-0.1-0.4-0.5-0.6-0.8-0.4l-11.2,7.6l-4.3,2.9
					l-1.4-0.3c0,0,0,0,0,0l-16.9-3.5c-0.4-0.1-0.7,0.3-0.7,0.6l3.5,18c0,0.2,0.2,0.4,0.4,0.4l8.6,1.6l8,1.5c1.3,0.2,2.6,0,3.7-0.7
					l0,0c0,0,0,0,0,0L82.6,113.7L82.6,113.7L82.6,113.7z"/>
			</g>
		</g>
		<g>
			<path class="st1" d="M52.9,97.6c-9.7-4.9-19.7-16.5-22.1-19.5c-0.1-0.1-0.2-0.3-0.1-0.5c3-4.1,7.3-6.5,11.8-6.5
				c7.4,0,11.9,4.3,14.3,6.2c1.2,3.4,2.6,6.9,4.3,9.9l0.6-0.4c-1.7-2.9-3.1-6.2-4.2-9.5c2-4,6.7-7.8,12.8-9.7
				c6.5-2,12.9-1.4,16.8,1.2c-0.4,5-1.7,10.6-4.4,16.3l0.6,0.2c2.8-6.1,4.1-11.9,4.4-17.2c1.2-3.6,3.9-7.4,7.8-10.5
				c2.5-2,5.2-3.3,7.8-4.2c0.1,0,0.2,0.1,0.2,0.3c0.5,4.4,1.7,23-13.1,38.3l0.1,0.7c17.1-17.5,13.2-39.6,13.2-39.6
				C97.8,42.3,82.3,26.8,57,33.2C34.4,39,26.1,62.5,29.5,75.8c0.2,0.8,0.5,1.6,0.8,2.4c0,0,11.7,14.7,22.9,20.3L52.9,97.6z"/>
		</g>
	</g>
</g>
</svg>
